<svg xmlns="http://www.w3.org/2000/svg" version="1.1" xmlns:xlink="http://www.w3.org/1999/xlink" xmlns:svgjs="http://svgjs.dev/svgjs" viewBox="0 0 800 800" opacity="1"><defs><symbol id="bbburst-shape-9" viewBox="0 0 182 172"><path d="M13.5809 69.845 91 13.5967l77.419 56.2483-29.571 91.012H43.1524L13.5809 69.845Z" stroke-width="22"></path></symbol><symbol id="bbburst-shape-11" viewBox="0 0 194 167"><path d="M10.398 161 97 11l86.603 150H10.397Z" stroke-width="11"></path></symbol><symbol id="bbburst-shape-13" viewBox="0 0 159 159"><path stroke-width="22" d="M11 11h137v137H11z"></path></symbol></defs><use xlink:href="#bbburst-shape-9" width="37.560874308902854" opacity="0.1713453503098129" transform="matrix(0.9892701218476944,0.14609800142181237,-0.14609800142181237,0.9892701218476944,554.2737389361349,-353.62257660479855)" fill="none" stroke="#ff5c58"></use><use xlink:href="#bbburst-shape-11" width="21.330065434447345" opacity="0.7053706212152424" transform="matrix(0.9234992696119835,0.3836001812123309,-0.3836001812123309,0.9234992696119835,676.145714400844,20.299198345875766)" fill="none" stroke="#ff5c58"></use><use xlink:href="#bbburst-shape-9" width="39.79325295028682" opacity="0.19759211569416635" transform="matrix(0.985257105512065,-0.17108020352450948,0.17108020352450948,0.985257105512065,-37.219593885882134,101.14414740931005)" fill="none" stroke="#ff5c58"></use><use xlink:href="#bbburst-shape-9" width="38.457237743605326" opacity="0.5533870405153541" transform="matrix(0.7961503804818851,0.6050988114833391,-0.6050988114833391,0.7961503804818851,449.37579628135086,163.93658625738448)" fill="none" stroke="#ffa6d5"></use><use xlink:href="#bbburst-shape-9" width="22.882620651140634" opacity="0.7833461474138022" transform="matrix(0.9737390531992326,-0.22766698547365632,0.22766698547365632,0.9737390531992326,355.600102274101,-65.5224184691773)" fill="none" stroke="#ffa6d5"></use><use xlink:href="#bbburst-shape-11" width="41.584926431168554" opacity="0.4056118111135334" transform="matrix(0.9680765727729415,-0.25065464138570365,0.25065464138570365,0.9680765727729415,18.02844881762637,73.92766783548137)" fill="none" stroke="#00a19d"></use><use xlink:href="#bbburst-shape-9" width="45.953167041587896" opacity="-0.06692349342716408" transform="matrix(0.8087005308147925,0.5882205806157013,-0.5882205806157013,0.8087005308147925,966.2055163503474,-266.6228894408035)" fill="none" stroke="#2c2891"></use><use xlink:href="#bbburst-shape-11" width="51.979814613590726" opacity="0.3273684375549216" transform="matrix(0.9934320308343735,-0.11442377424422133,0.11442377424422133,0.9934320308343735,87.00480142093227,187.6310692804766)" fill="none" stroke="#00a19d"></use><use xlink:href="#bbburst-shape-11" width="26.562768262520137" opacity="0.5061461336416331" transform="matrix(0.9881424537007261,-0.15353986841960127,0.15353986841960127,0.9881424537007261,328.870971266083,-215.76324945473422)" fill="none" stroke="#ff5c58"></use><use xlink:href="#bbburst-shape-11" width="46.97646199142429" opacity="0.10804090307129599" transform="matrix(0.9630412663030141,0.26935389248623665,-0.26935389248623665,0.9630412663030141,132.21469538595622,-183.04216549161728)" fill="none" stroke="#00a19d"></use><use xlink:href="#bbburst-shape-9" width="30.502207296214834" opacity="0.48817142551050186" transform="matrix(0.9361859149038438,-0.3515052385607543,0.3515052385607543,0.9361859149038438,19.322437346019626,-15.095663246901097)" fill="none" stroke="#ff5c58"></use><use xlink:href="#bbburst-shape-9" width="40.05546316594038" opacity="0.06121583023602173" transform="matrix(0.9307806462278934,-0.3655781566335511,0.3655781566335511,0.9307806462278934,466.75173264744467,-318.471004405516)" fill="none" stroke="#2c2891"></use><use xlink:href="#bbburst-shape-9" width="36.28703873634813" opacity="0.3538824415773544" transform="matrix(0.9756049629222939,0.21953349703721636,-0.21953349703721636,0.9756049629222939,498.0351872379521,-283.87791990884216)" fill="none" stroke="#ff5c58"></use><use xlink:href="#bbburst-shape-9" width="15.89327235535642" opacity="0.8511241760440938" transform="matrix(0.9253230358131915,0.3791797454947444,-0.3791797454947444,0.9253230358131915,491.3522204593221,67.7274729792972)" fill="none" stroke="#ffbd9b"></use><use xlink:href="#bbburst-shape-9" width="20.734145999390414" opacity="0.8396287685692448" transform="matrix(0.9041496811368989,-0.427215816771856,0.427215816771856,0.9041496811368989,147.72854100066863,37.076320382930646)" fill="none" stroke="#2c2891"></use><use xlink:href="#bbburst-shape-11" width="20.228035476984953" opacity="0.853748930580073" transform="matrix(0.9683460603895638,0.24961151281143104,-0.24961151281143104,0.9683460603895638,468.752179246342,-52.364453486761136)" fill="none" stroke="#2c2891"></use><use xlink:href="#bbburst-shape-9" width="27.794921060501167" opacity="0.6077815680622871" transform="matrix(0.8167842968333938,-0.5769431622321027,0.5769431622321027,0.8167842968333938,197.6131904254132,253.09209676324065)" fill="none" stroke="#2c2891"></use><use xlink:href="#bbburst-shape-11" width="41.51177988021409" opacity="-0.07182770334526256" transform="matrix(0.9351536925013345,-0.3542422495992248,0.3542422495992248,0.9351536925013345,-101.04455774804944,375.14467966474706)" fill="none" stroke="#00a19d"></use><use xlink:href="#bbburst-shape-11" width="20.183926867407187" opacity="0.8712134775167311" transform="matrix(0.9986478441336205,0.05198541533230274,-0.05198541533230274,0.9986478441336205,420.12259940335986,56.94410250290616)" fill="none" stroke="#2c2891"></use><use xlink:href="#bbburst-shape-13" width="45.85019265911652" opacity="0.09410631162389549" transform="matrix(0.7744754534324131,-0.6326039614408514,0.6326039614408514,0.7744754534324131,342.8571157612736,451.8901073831655)" fill="none" stroke="#ffa6d5"></use><use xlink:href="#bbburst-shape-9" width="27.640870199734234" opacity="0.6907089768552974" transform="matrix(0.7127659422302737,0.7014019615003869,-0.7014019615003869,0.7127659422302737,537.9235544073794,63.783193746657844)" fill="none" stroke="#00a19d"></use><use xlink:href="#bbburst-shape-9" width="50.45310703210123" opacity="0.1865441214452902" transform="matrix(0.762924474910101,-0.6464876221422547,0.6464876221422547,0.762924474910101,406.49842455361375,341.1452731749977)" fill="none" stroke="#2c2891"></use><use xlink:href="#bbburst-shape-9" width="37.17199589821465" opacity="0.41467621325552706" transform="matrix(0.8518224647117199,0.5238305915202459,-0.5238305915202459,0.8518224647117199,669.3405540174167,301.66207929359206)" fill="none" stroke="#2c2891"></use><use xlink:href="#bbburst-shape-9" width="41.008222321884105" opacity="0.3285179032486423" transform="matrix(0.9707416274249567,-0.24012641001011634,0.24012641001011634,0.9707416274249567,459.09622180963237,262.6080086868714)" fill="none" stroke="#2c2891"></use><use xlink:href="#bbburst-shape-11" width="25.629756802655553" opacity="0.5049630479526126" transform="matrix(0.9748449627375754,0.2228840474892162,-0.2228840474892162,0.9748449627375754,611.5133586766095,-170.48496308432578)" fill="none" stroke="#00a19d"></use><use xlink:href="#bbburst-shape-13" width="34.494259158780004" opacity="0.1817997770377332" transform="matrix(0.8908514181033005,0.45429478410316193,-0.45429478410316193,0.8908514181033005,830.887557668735,-220.2726327160546)" fill="none" stroke="#ffa6d5"></use><use xlink:href="#bbburst-shape-13" width="36.221098072530964" opacity="0.06760562803966053" transform="matrix(0.8596128723200042,-0.5109458970788905,0.5109458970788905,0.8596128723200042,-47.65195790529893,-287.005371049664)" fill="none" stroke="#ffbd9b"></use><use xlink:href="#bbburst-shape-13" width="21.044878728868497" opacity="0.8981733224502565" transform="matrix(0.9985107364289603,0.05455556100064862,-0.05455556100064862,0.9985107364289603,432.5163571693226,-40.60072882018136)" fill="none" stroke="#ffa6d5"></use><use xlink:href="#bbburst-shape-13" width="35.87488088102279" opacity="0.3527307157015114" transform="matrix(0.8435044124216966,-0.5371222451408323,0.5371222451408323,0.8435044124216966,37.139310831547306,331.42661503742073)" fill="none" stroke="#ffa6d5"></use><use xlink:href="#bbburst-shape-13" width="17.428604633453016" opacity="0.9321015985237778" transform="matrix(0.9045343483314727,0.4264007653470593,-0.4264007653470593,0.9045343483314727,593.2230324669025,35.21900391664775)" fill="none" stroke="#2c2891"></use><use xlink:href="#bbburst-shape-13" width="26.934988282769353" opacity="0.7465358072003854" transform="matrix(0.9047991839853093,-0.42583851007103424,0.42583851007103424,0.9047991839853093,230.94318244209,157.07673475427634)" fill="none" stroke="#ffa6d5"></use><use xlink:href="#bbburst-shape-13" width="33.170030916110974" opacity="0.1831288902483149" transform="matrix(0.8519538056156478,0.5236169526447888,-0.5236169526447888,0.8519538056156478,229.94668496818753,10.181868251044932)" fill="none" stroke="#ff5c58"></use><use xlink:href="#bbburst-shape-9" width="38.87623629721489" opacity="0.39517449716051667" transform="matrix(0.9712684281521793,-0.23798663927791175,0.23798663927791175,0.9712684281521793,115.50687091878208,-196.39983385847773)" fill="none" stroke="#ffa6d5"></use><use xlink:href="#bbburst-shape-9" width="24.479770276643208" opacity="0.6462189243906318" transform="matrix(0.9546339468293065,-0.29778184558683385,0.29778184558683385,0.9546339468293065,216.59321681038122,171.90854604287216)" fill="none" stroke="#00a19d"></use><use xlink:href="#bbburst-shape-9" width="28.389499757345675" opacity="0.6925711909774585" transform="matrix(0.8963468820207455,0.4433534336076442,-0.4433534336076442,0.8963468820207455,682.6712745741959,-37.26848366809048)" fill="none" stroke="#ffa6d5"></use><use xlink:href="#bbburst-shape-9" width="21.314221086421146" opacity="0.7973507475461901" transform="matrix(0.934736005674399,0.35534293252556737,-0.35534293252556737,0.934736005674399,544.0271800116502,-68.24105519131132)" fill="none" stroke="#ffa6d5"></use><use xlink:href="#bbburst-shape-11" width="20.843463837203934" opacity="0.8268537503926934" transform="matrix(0.7510764979172498,0.660215187856474,-0.660215187856474,0.7510764979172498,729.1768997342692,64.56543136395169)" fill="none" stroke="#2c2891"></use><use xlink:href="#bbburst-shape-9" width="35.55519358310261" opacity="0.3211798214521151" transform="matrix(0.9082033175153345,-0.41852925113322803,0.41852925113322803,0.9082033175153345,-83.00226720035263,-16.920482195701368)" fill="none" stroke="#ffa6d5"></use><use xlink:href="#bbburst-shape-9" width="31.89710955808885" opacity="0.3808507215312078" transform="matrix(0.8758418102934298,0.48259830432972706,-0.48259830432972706,0.8758418102934298,789.1093993215732,-141.40189454287986)" fill="none" stroke="#ffa6d5"></use><use xlink:href="#bbburst-shape-11" width="16.39359415475876" opacity="0.7417061906940705" transform="matrix(0.8207679605935345,0.5712617218605937,-0.5712617218605937,0.8207679605935345,579.9207963495949,-41.55067382732415)" fill="none" stroke="#ffa6d5"></use><use xlink:href="#bbburst-shape-9" width="34.72986874397104" opacity="0.2766019428512151" transform="matrix(0.8098555520049787,-0.5866293419926344,0.5866293419926344,0.8098555520049787,132.75110359276988,411.06384315794554)" fill="none" stroke="#ffa6d5"></use><use xlink:href="#bbburst-shape-9" width="15.047098747023735" opacity="0.8559505504828162" transform="matrix(0.9604028492923254,-0.27861508765891146,0.27861508765891146,0.9604028492923254,330.05034956627424,60.561561461418535)" fill="none" stroke="#ffa6d5"></use><use xlink:href="#bbburst-shape-13" width="37.01393836587482" opacity="0.37860968880213985" transform="matrix(0.9979626253566752,0.06380124129836495,-0.06380124129836495,0.9979626253566752,681.646178252165,-53.16851803349931)" fill="none" stroke="#2c2891"></use><use xlink:href="#bbburst-shape-9" width="23.830679473455124" opacity="0.3223952561385224" transform="matrix(0.9954893341596411,0.09487352409600049,-0.09487352409600049,0.9954893341596411,318.02815614353045,-284.6129471055833)" fill="none" stroke="#ff5c58"></use><use xlink:href="#bbburst-shape-13" width="27.6803834725503" opacity="0.1037085827158073" transform="matrix(0.7154488827004897,0.6986650815967698,-0.6986650815967698,0.7154488827004897,1032.260447799617,-72.27866358464368)" fill="none" stroke="#ffa6d5"></use><use xlink:href="#bbburst-shape-11" width="26.23195981622908" opacity="0.5178350420436408" transform="matrix(0.7185859277412534,-0.695438181618066,0.695438181618066,0.7185859277412534,181.48820622864395,-84.1576279403279)" fill="none" stroke="#ff5c58"></use><use xlink:href="#bbburst-shape-9" width="24.61743220291327" opacity="0.6791143601107452" transform="matrix(0.8406228123389231,-0.5416209812917144,0.5416209812917144,0.8406228123389231,199.73955466345842,-71.60702377157634)" fill="none" stroke="#2c2891"></use><use xlink:href="#bbburst-shape-9" width="43.093305004583705" opacity="-0.06779428894480799" transform="matrix(0.9140685425472921,-0.40555973607530293,0.40555973607530293,0.9140685425472921,-128.4117615130234,-290.1886912637877)" fill="none" stroke="#ffa6d5"></use><use xlink:href="#bbburst-shape-9" width="26.1833671865905" opacity="0.6521402713599639" transform="matrix(0.7484939920694913,-0.6631415714882277,0.6631415714882277,0.7484939920694913,215.4111462301193,-18.51307460480018)" fill="none" stroke="#2c2891"></use><use xlink:href="#bbburst-shape-13" width="21.951684186297733" opacity="0.6909544393174194" transform="matrix(0.9617440545826094,-0.27394958199457603,0.27394958199457603,0.9617440545826094,178.50512629016185,-76.91127874286724)" fill="none" stroke="#ffa6d5"></use><use xlink:href="#bbburst-shape-9" width="15.003040803262548" opacity="0.9558031635924997" transform="matrix(0.9958520502992328,0.09098732832001466,-0.09098732832001466,0.9958520502992328,416.58965224518573,16.47010953325622)" fill="none" stroke="#2c2891"></use><use xlink:href="#bbburst-shape-9" width="46.181434636350474" opacity="0.19299814704870966" transform="matrix(0.7809420202706656,-0.6246035230252639,0.6246035230252639,0.7809420202706656,215.9649135666089,455.0970119317107)" fill="none" stroke="#2c2891"></use><use xlink:href="#bbburst-shape-9" width="45.14383238581111" opacity="0.3191448785379417" transform="matrix(0.9690551274373244,-0.24684440440777866,0.24684440440777866,0.9690551274373244,573.3291072632002,103.8324954810837)" fill="none" stroke="#ffa6d5"></use><use xlink:href="#bbburst-shape-13" width="36.98763176706213" opacity="0.12376790284754247" transform="matrix(0.8734224133573905,-0.48696333316272566,0.48696333316272566,0.8734224133573905,550.1240599144023,218.09823946408432)" fill="none" stroke="#2c2891"></use><use xlink:href="#bbburst-shape-9" width="57.95737248981882" opacity="0.11918610658426643" transform="matrix(0.7412245160394307,-0.6712571912628659,0.6712571912628659,0.7412245160394307,-119.84541698482437,445.7668322464402)" fill="none" stroke="#2c2891"></use><use xlink:href="#bbburst-shape-9" width="32.92883856616566" opacity="0.1626499473197388" transform="matrix(0.9389005249670538,0.3441886172095044,-0.3441886172095044,0.9389005249670538,406.2172996620474,377.0477654429249)" fill="none" stroke="#00a19d"></use><use xlink:href="#bbburst-shape-13" width="35.56802880141634" opacity="0.20435603932080904" transform="matrix(0.8548154041377098,0.5189321967741873,-0.5189321967741873,0.8548154041377098,950.2832667689045,39.29626267387215)" fill="none" stroke="#00a19d"></use><use xlink:href="#bbburst-shape-9" width="47.504792793663285" opacity="0.1947885586874577" transform="matrix(0.9855698623700896,0.16926915368076545,-0.16926915368076545,0.9855698623700896,191.36757248033638,-257.9725933688953)" fill="none" stroke="#ffa6d5"></use><use xlink:href="#bbburst-shape-9" width="37.08404642031794" opacity="0.534205053740828" transform="matrix(0.8895340667514989,0.456868847798293,-0.456868847798293,0.8895340667514989,389.614511201573,-77.17311652970722)" fill="none" stroke="#00a19d"></use><use xlink:href="#bbburst-shape-11" width="30.528648797353664" opacity="0.15867095623767702" transform="matrix(0.8977726723420967,0.4404591113778104,-0.4404591113778104,0.8977726723420967,445.03955067294396,-326.0516007932793)" fill="none" stroke="#2c2891"></use><use xlink:href="#bbburst-shape-13" width="37.121352972871904" opacity="0.4997347655481925" transform="matrix(0.9113723885912919,0.4115827611956108,-0.4115827611956108,0.9113723885912919,770.6389991064277,59.19143407611051)" fill="none" stroke="#ffa6d5"></use><use xlink:href="#bbburst-shape-9" width="30.11999793672186" opacity="0.6328950122064535" transform="matrix(0.995123583169214,-0.09863596818840675,0.09863596818840675,0.995123583169214,313.23429562565553,-158.77383916841652)" fill="none" stroke="#2c2891"></use><use xlink:href="#bbburst-shape-11" width="26.713844650240482" opacity="0.693536607125865" transform="matrix(0.767392759548036,0.6411773175910469,-0.6411773175910469,0.767392759548036,547.3372295209854,180.11594516709056)" fill="none" stroke="#00a19d"></use><use xlink:href="#bbburst-shape-9" width="30.23800940773387" opacity="0.7287516983391396" transform="matrix(0.7338996526140802,-0.6792579038133693,0.6792579038133693,0.7338996526140802,194.49677388132875,210.91601116547156)" fill="none" stroke="#ffa6d5"></use><use xlink:href="#bbburst-shape-13" width="23.82433816927558" opacity="0.7352932903821521" transform="matrix(0.9934230660601227,0.11450157998781106,-0.11450157998781106,0.9934230660601227,319.2285955129744,33.27057552398816)" fill="none" stroke="#ffa6d5"></use><use xlink:href="#bbburst-shape-9" width="12.855142250512076" opacity="0.9289958389150463" transform="matrix(0.9787793648895223,-0.2049169462647326,0.2049169462647326,0.9787793648895223,288.19398663552386,-11.895318520769365)" fill="none" stroke="#2c2891"></use><use xlink:href="#bbburst-shape-9" width="39.17867723189702" opacity="0.5099417690038276" transform="matrix(0.9832841298377358,-0.1820777856006787,0.1820777856006787,0.9832841298377358,170.27475010250146,182.33730503508377)" fill="none" stroke="#00a19d"></use><use xlink:href="#bbburst-shape-9" width="28.29555234838823" opacity="0.20013670637766634" transform="matrix(0.9275078957108216,0.37380356257543035,-0.37380356257543035,0.9275078957108216,530.3489743333595,-336.35498461202013)" fill="none" stroke="#00a19d"></use><use xlink:href="#bbburst-shape-13" width="36.04046186967592" opacity="0.5567060875473809" transform="matrix(0.818920705487398,-0.5739066806755453,0.5739066806755453,0.818920705487398,277.2738376745409,240.9133217310175)" fill="none" stroke="#ffa6d5"></use><use xlink:href="#bbburst-shape-11" width="33.50008472085626" opacity="0.575274599059067" transform="matrix(0.8718953522371626,-0.48969224493270674,0.48969224493270674,0.8718953522371626,80.64745118660275,-98.16551773319321)" fill="none" stroke="#2c2891"></use><use xlink:href="#bbburst-shape-9" width="42.11842770121411" opacity="0.3322483394608353" transform="matrix(0.9739774391617281,-0.2266449823048423,0.2266449823048423,0.9739774391617281,29.887398417230372,-137.6553787886949)" fill="none" stroke="#ffbd9b"></use><use xlink:href="#bbburst-shape-9" width="23.097121115221434" opacity="0.8092773470562474" transform="matrix(0.8779463821454188,-0.47875896866562234,0.47875896866562234,0.8779463821454188,130.46803219384847,1.6103957963204607)" fill="none" stroke="#2c2891"></use><use xlink:href="#bbburst-shape-9" width="23.386939035656724" opacity="0.5996579906606707" transform="matrix(0.978856300306601,-0.20454912209558213,0.20454912209558213,0.978856300306601,126.88170507633042,21.655248909479667)" fill="none" stroke="#2c2891"></use><use xlink:href="#bbburst-shape-9" width="52.81245672907259" opacity="-0.06030992811872893" transform="matrix(0.8046721812761264,-0.5937193618876858,0.5937193618876858,0.8046721812761264,484.8469449791808,424.38124005868383)" fill="none" stroke="#ff5c58"></use><use xlink:href="#bbburst-shape-11" width="22.975020261251945" opacity="0.7920596614201305" transform="matrix(0.8712401463039321,0.4908570132618082,-0.4908570132618082,0.8712401463039321,676.2152070959113,72.13055832804747)" fill="none" stroke="#00a19d"></use><use xlink:href="#bbburst-shape-9" width="24.155319363103054" opacity="0.5230632462084726" transform="matrix(0.8843218204390481,-0.4668778404415527,0.4668778404415527,0.8843218204390481,388.31247671947966,-55.627018000778946)" fill="none" stroke="#00a19d"></use><use xlink:href="#bbburst-shape-9" width="27.654189560941745" opacity="0.6399192685620334" transform="matrix(0.8120483523143682,-0.5835901588473881,0.5835901588473881,0.8120483523143682,302.43824353238415,150.80820434046854)" fill="none" stroke="#ffa6d5"></use><use xlink:href="#bbburst-shape-9" width="36.262330462173225" opacity="0.28238349214116754" transform="matrix(0.7410381954238918,-0.6714628753124791,0.6714628753124791,0.7410381954238918,408.055646397805,-25.993226346977565)" fill="none" stroke="#ffa6d5"></use><use xlink:href="#bbburst-shape-13" width="33.06251764495026" opacity="0.5770372783046878" transform="matrix(0.9979830133742492,0.06348153287731113,-0.06348153287731113,0.9979830133742492,595.4482700833289,-37.98523749789206)" fill="none" stroke="#ff5c58"></use><use xlink:href="#bbburst-shape-9" width="51.467345808493256" opacity="0.0942739411161595" transform="matrix(0.8469568184919153,0.531661685294373,-0.531661685294373,0.8469568184919153,247.7429501638176,266.9152682849395)" fill="none" stroke="#2c2891"></use><use xlink:href="#bbburst-shape-13" width="40.3068512344381" opacity="0.49797053670684777" transform="matrix(0.9655067175224982,0.2603781450485637,-0.2603781450485637,0.9655067175224982,452.4873947009072,232.15570180731146)" fill="none" stroke="#00a19d"></use><use xlink:href="#bbburst-shape-11" width="25.755018127145345" opacity="0.4797527766776497" transform="matrix(0.7874570307022526,0.616369552133776,-0.616369552133776,0.7874570307022526,568.8380676807647,-147.26801664320806)" fill="none" stroke="#ffa6d5"></use><use xlink:href="#bbburst-shape-11" width="31.57950274131164" opacity="0.3275382572596991" transform="matrix(0.9997086327369595,0.024138136448345195,-0.024138136448345195,0.9997086327369595,537.6615853532347,-266.9387799372325)" fill="none" stroke="#ffbd9b"></use><use xlink:href="#bbburst-shape-9" width="21.549559318259917" opacity="0.7923727876121263" transform="matrix(0.9930698725835279,-0.11752543625503235,0.11752543625503235,0.9930698725835279,306.29499927417555,90.12168132533606)" fill="none" stroke="#ffa6d5"></use><use xlink:href="#bbburst-shape-13" width="35.19297530136607" opacity="0.441827617156094" transform="matrix(0.9941105532018581,0.10837069720498978,-0.10837069720498978,0.9941105532018581,634.4255230401484,140.40840406660635)" fill="none" stroke="#ffa6d5"></use></svg>